# xmcd
#
# Track frame offsets: 
#        150
#        450
#        18679
#        32848
#        33148
#        46926
#        62188
#        85864
#        97578
#        113641
#        138973
#        163214
#        175798
#        186908
#        201951
#
# Disc length: 2811 seconds
#
# Revision: 0
# Processed by: cddbd v1.5.2PL0 Copyright (c) Steve Scherf et al.
# Submitted via: ExactAudioCopy v1.3
#
DISCID=b90af90f
DTITLE=Big Daddy Wilson and Doc Fozz  - My Day Will Come
DYEAR=2008
DGENRE=Blues
TTITLE0=Talking To Myself
TTITLE1=My Day Will Come
TTITLE2=Motherless Child
TTITLE3=Grandmas' Hands
TTITLE4=Hand it over
TTITLE5=Tell old Bill
TTITLE6=Traveling Blues
TTITLE7=A Little Bit
TTITLE8=Summertime
TTITLE9=Crazy World
TTITLE10=Texas Boogie
TTITLE11=Early In The Morning
TTITLE12=Born With The Blues
TTITLE13=Nobody Knows
TTITLE14=Walk with me Lord
EXTD=
EXTT0=
EXTT1=
EXTT2=
EXTT3=
EXTT4=
EXTT5=
EXTT6=
EXTT7=
EXTT8=
EXTT9=
EXTT10=
EXTT11=
EXTT12=
EXTT13=
EXTT14=
PLAYORDER=
